<?xml version="1.0" encoding="UTF-8"?>
<svg id="Layer_1" data-name="Layer 1" xmlns="http://www.w3.org/2000/svg" viewBox="0 0 270.71 188.59">
  <defs>
    <style>
      .cls-1 {
        fill: #89d5ed;
      }

      .cls-1, .cls-2 {
        stroke-width: 0px;
      }

      .cls-2 {
        fill: #fff;
      }
    </style>
  </defs>
  <path class="cls-2" d="m195.31,66.35c-.69,3.27-1.31,5.46-1.75,6.83-.2.69-.34,1.18-.43,1.49-.08.32-.11.46-.1.47.04.01.26-.53.58-1.41.31-.87.8-2.05,1.15-3.36,1.58-5.17,2.61-11.84,1.08-3.91-2.01,9.68-6.25,18.98-11.92,27.44-5.67,8.48-12.73,16.17-20.52,23.04,4.77-4.25,7.78-7.5,9.76-9.76,1.99-2.27,2.91-3.61,3.34-4.28.84-1.36-.52-.22-1.12.17-.3.2-.42.21,0-.36.44-.56,1.39-1.74,3.19-3.94,1.73-2.25,4.35-5.52,7.49-10.62.39-.64.79-1.3,1.21-1.99.4-.7.78-1.44,1.2-2.19.87-1.5,1.61-3.19,2.48-4.96,1.59-3.61,3.17-7.78,4.34-12.66Z"/>
  <path class="cls-2" d="m136.72,138.59c-1.72.86-3.53,1.51-5.33,2.22-1.83.61-3.67,1.26-5.55,1.75-4.28.9-9.71,1.63-15.08,1.98-5.37.37-10.67.4-14.68.28-4.01-.11-6.74-.33-7.01-.47-.27-.15,1.92-.16,7.74-.3,5.81.15,11.64.05,18.14-.58,1.62-.16,3.29-.39,5-.61,1.7-.3,3.48-.52,5.29-.94,3.64-.71,7.48-1.77,11.48-3.33Z"/>
  <path class="cls-1" d="m200.64,101.57c-2.44,3.68-5.12,7.14-7.91,10.45-2.78,3.33-5.75,6.44-8.79,9.43,4.53-4.58,7.54-8.4,10.86-13.01.84-1.14,1.67-2.37,2.54-3.68.89-1.29,1.78-2.7,2.73-4.22,1.91-3.04,3.99-6.62,6.22-11.12-.38,1.06-.82,2.09-1.27,3.11-.45,1.02-.88,2.07-1.35,3.07-.98,2-1.93,4.03-3.02,5.97Z"/>
  <path class="cls-1" d="m171.6,148.63c-.64-1.84-1.17-4.18-.99-7.2.17-3.01,1.01-6.75,3.28-11.23-.24,1-.64,2.45-1.16,4.57-.47,2.12-1.06,4.91-.68,8.56.21,1.81.7,3.88,1.9,5.95,1.19,2.07,3.09,4.01,5.61,5.43,2.51,1.44,5.63,2.47,9.36,2.95,3.71.51,7.98.45,12.52-.36,1.95-.31,3.59-.69,5.43-1.24,1.83-.52,3.69-1.26,5.59-2.12,1.9-.86,3.78-1.93,5.64-3.14.93-.6,1.84-1.26,2.74-1.95.79-.63,1.58-1.27,2.39-1.91,1.61-1.26,3.14-2.67,4.71-4.02,1.51-1.43,3.07-2.82,4.51-4.32,2.94-2.92,5.65-6,8.05-9,2.43-2.98,4.48-5.96,6.24-8.59,1.72-2.67,3.12-5.03,4.15-6.89.52-.93.96-1.72,1.31-2.36.35-.64.61-1.12.79-1.41.37-.58.41-.42.04.67-.41.94-.89,1.84-1.34,2.75-.45.92-.92,1.82-1.43,2.7.34-.19,1.56-1.88,3.27-4.85,1.7-2.98,3.86-7.29,5.71-12.82,1.83-5.53,3.43-12.28,3.52-20.03.04-3.87-.29-7.98-1.29-12.24-.99-4.24-2.75-8.69-5.62-12.87-1.48-1.73-1.37-1.26-.77-.11.57,1.15,1.48,3.03,1.75,4.14.31,1.11.2,1.42-1.08-.44-.68-.91-1.69-2.37-3.47-4.37-1.83-1.93-4.54-4.55-9.01-6.49-2.75-1.26-5.76-2-8.73-2.2-2.97-.18-5.85.14-8.58.75-2.74.6-5.24,1.58-7.68,2.64-2.36,1.13-4.65,2.37-6.76,3.77-4.26,2.76-8.06,5.93-11.57,9.26-3.5,3.33-6.75,6.82-9.73,10.4-6.01,7.12-11.13,14.49-15.7,21.52-4.54,7.03-8.51,13.79-11.85,19.96-1.74,4.07-3.34,8.24-4.83,12.46l-1.08,3.19-1,3.24c-.34,1.07-.63,2.18-.92,3.28l-.44,1.65-.46,1.96c-.19.63-.37,1.25-.55,1.86-.09.29-.18.63-.26.99-.08.35-.17.7-.25,1.05-.31,1.39-.71,2.75-.88,4.08-.47,2.66-.73,5.18-.73,7.51.02,1.16,0,2.31.16,3.36.06.53.12,1.06.18,1.59.11.5.21,1,.31,1.49.4,1.97,1.09,3.73,1.96,5.33,1.73,3.19,4.77,5.55,7.91,6.33.77.27,1.56.32,2.32.47.77.03,1.53.16,2.28.1.75-.02,1.5-.04,2.23-.17.37-.05.73-.09,1.1-.14l1.09-.24c2.88-.65,5.68-1.81,8.43-3.34,2.75-1.57,5.42-3.59,8.07-5.91,1.26-1.21,2.71-2.54,3.65-3.59,1.13-1.18,1.98-2.19,2.92-3.29,1.81-2.22,3.65-4.64,5.41-7.4-1.57,2.8-3.35,5.52-5.29,8.17-.51.67-.96,1.29-1.52,1.99l-1.83,2.18c-.72.79-1.58,1.67-2.37,2.5-.8.86-1.69,1.58-2.53,2.38.95-.79,1.84-1.43,2.57-2.11.75-.67,1.41-1.26,2.01-1.8,1.02-.92,1.83-1.65,2.57-2.31.33-.3.65-.59.97-.88.3-.27.6-.55.91-.85.64-.59,1.31-1.28,2.13-2.2,1.62-1.85,3.91-4.59,6.87-9.72,1.49-2.56,3.1-5.74,4.76-9.73,1.65-3.99,3.3-8.82,4.62-14.68,1.55-7.89,1.95-14.29,1.94-20,0-5.72-.43-10.77-1.24-16.04-.81-5.27-1.98-10.8-4.02-17.32-.51-1.63-1.05-3.33-1.72-5.08-.32-.88-.65-1.78-.99-2.7-.37-.91-.76-1.83-1.15-2.79-.76-1.92-1.69-3.87-2.64-5.94-.15-.33-.31-.66-.46-1-.15-.4-.44-.82-.63-1.13-.35-.56-.71-1.13-1.07-1.71-.68-1.06-1.33-2.17-2.16-3.26-.92-1.35-1.76-2.75-2.87-4.11-.53-.68-1.07-1.38-1.62-2.07-.55-.7-1.2-1.36-1.81-2.05-2.44-2.75-5.46-5.39-8.94-7.75-3.46-2.39-7.61-4.3-12.07-5.53-4.46-1.23-9.26-1.69-13.95-1.36-4.71.31-9.28,1.38-13.57,2.93-4.3,1.55-8.35,3.56-12.17,5.85-3.84,2.28-7.39,4.91-10.78,7.69-3.4,2.78-6.6,5.77-9.61,8.9-12.07,12.54-21.63,27.13-28.81,42.17-1.79,3.76-3.39,7.58-4.87,11.39-1.42,3.84-2.74,7.67-3.82,11.53-2.16,7.72-3.61,15.46-3.94,23.14-.03,1.69.11,3.49.19,5.31.19,1.85.3,3.72.65,5.69.6,3.9,1.56,8.05,3.31,12.28.88,2.11,1.91,4.23,3.2,6.3.58,1.06,1.37,2.04,2.08,3.05.36.51.73,1.01,1.16,1.48.52.59,1.04,1.19,1.57,1.78,2.25,2.25,4.63,4.31,7.29,6l.98.67c.33.21.68.37,1.02.56.69.36,1.37.73,2.07,1.09,1.36.75,2.82,1.43,4.24,2.14l.91-.08c.3-.02.61-.05.93-.15.64-.17,1.29-.33,1.92-.51,1.26-.35,2.51-.76,3.72-1.29,2.43-1.07,4.73-2.59,6.84-4.48,2.11-1.87,4.03-4.06,5.78-6.42.24-.3.42-.57.6-.84l.47-.67c.31-.44.61-.89.88-1.33.58-.89,1.12-1.79,1.65-2.69,4.15-7.22,7.06-14.71,9.41-22.34,2.33-7.63,4.04-15.4,5.18-23.19,1.13-7.8,1.7-15.62,1.55-23.35-.15-7.73-1-15.39-2.96-22.77-1.97-7.34-5.07-14.55-10.1-20.52-2.5-2.96-5.47-5.55-8.69-7.51-3.21-1.96-6.66-3.29-9.87-4-3.18-.8-6.42-1-9.4-.87-.75.06-1.48.12-2.2.18-.72.07-1.41.23-2.09.35-1.38.22-2.64.62-3.85.98-3.41.87-6.51,2.18-9.29,3.7-2.73,1.57-5.2,3.28-7.37,5.11-4.37,3.64-7.73,7.55-10.62,11.34-5.71,7.64-9.45,14.95-12.42,21.62-2.92,6.69-4.99,12.81-6.57,18.46-1.59,5.65-2.67,10.86-3.42,15.8-.74,4.94-1.18,9.61-1.24,14.29,0,1.18-.02,2.27.03,3.7.03.7.03,1.3.09,2.07l.17,2.31c.33,3.04.78,6.05,1.73,8.79.91,2.76,2.17,5.3,3.98,7.47.42.57.97,1.03,1.47,1.55.24.27.57.45.85.68.3.21.56.46.9.63,1.25.79,2.7,1.32,4.21,1.59,6.14.82,12.35-2.57,18.11-7.7,4.17-3.62,7.8-6.53,8.57-10.12,1.06-2.48,1.79-4.08,2.29-5.15.94-2.11.98-1.67.37.55-.33,1.1-.83,2.64-1.47,4.53-.46,1.29-.96,2.71-1.49,4.23-1.04,1.23-2.26,2.49-3.51,3.84-.67.65-1.35,1.31-2.05,1.98-.35.34-.71.68-1.06,1.03-.38.32-.77.65-1.16.98-.79.64-1.57,1.36-2.42,1.97-.86.59-1.73,1.19-2.61,1.8-.91.53-1.84,1.02-2.78,1.54-.95.43-1.93.82-2.92,1.2-2,.6-4.06,1.05-6.2.99-2.12-.09-4.33-.66-6.2-1.81-1.89-1.12-3.4-2.69-4.66-4.41l-.88-1.35c-.3-.45-.51-.96-.77-1.44-.53-.94-.9-2-1.3-3.03-.35-1.06-.66-2.15-.95-3.23-.21-1.13-.49-2.22-.64-3.35-.13-1.14-.33-2.25-.4-3.38-.06-1.11-.15-2.3-.19-3.3-.01-.95-.03-1.88-.04-2.79.01-.78.03-1.54.04-2.28.09-2.94.27-5.58.5-7.83.43-4.5.89-7.5.83-8.25-.02-.74-.59.73-1.56,5.43-.51,3.26-.91,6.57-1.14,9.97l-.13,2.57c-.03.96-.04,2.07-.04,3.1-.01.48.04,1.18.06,1.79l.08,1.88c.05,1.26.26,2.47.38,3.71.15,1.23.44,2.4.65,3.61.3,1.16.62,2.3.98,3.42.43,1.07.8,2.19,1.35,3.16.26.5.51,1.01.78,1.5l.91,1.38c1.29,1.78,2.79,3.41,4.66,4.65,1.86,1.25,4.08,2.03,6.27,2.31.55.12,1.1.12,1.66.13.55,0,1.11.06,1.65-.03l1.65-.16c.55-.07,1.09-.23,1.63-.34,2.18-.46,4.33-1.38,6.45-2.49,4.24-2.27,8.22-5.69,11.81-9.18l2.62-2.72.66-.68c.1-.12.23-.22.32-.35l.17-.45.69-1.81,2.05-5.35c1.17-3.03,2.2-6.15,3.3-9.23,4.04-12.52,7.68-25.47,8.13-39.99l.04-1.36-.03-1.39-.09-2.79c-.02-.92-.17-1.9-.26-2.85-.12-.96-.16-1.89-.38-2.88l-.57-2.94c-.21-.98-.55-1.99-.83-2.98-.16-.5-.28-.99-.47-1.49l-.61-1.51c-.42-1-.8-2-1.38-3-2.04-3.96-5.25-7.84-9.34-10.53-4.07-2.72-8.71-4.15-13.04-4.64-4.36-.49-8.5-.19-12.34.55-3.86.74-7.48,1.88-10.94,3.25-6.88,2.79-13.11,6.51-18.8,10.91-5.68,4.42-10.85,9.52-15.23,15.5-2.21,2.97-4.16,6.23-5.81,9.74-1.63,3.52-2.99,7.3-3.65,11.44-.68,4.11-.69,8.54.23,12.86.91,4.31,2.72,8.47,5.17,11.95,2.45,3.46,5.34,6.4,8.4,8.8.75.65,1.55,1.13,2.33,1.7.79.53,1.56,1.14,2.36,1.59l2.4,1.41c.4.23.8.47,1.2.69l1.22.6c1.62.8,3.24,1.63,4.88,2.26,1.63.68,3.27,1.38,4.91,1.91,1.64.56,3.28,1.18,4.92,1.61l2.46.71,1.31.38c.46.16,1.28.29,1.74.38,6.49,1.18,12.81,2.09,19.2,2.85,6.45.44,8.53.27,8.84.01.31-.27-1.13-.68-1.71-.99-.58-.31-.3-.51,3.44-.36,1.87.08,4.61.19,8.55.35,3.94.16,9.09.3,15.81.21-4.44.22-6.53.36-6.88.59-.35.22,1.04.49,3.6.73,5.12.44,14.96.67,24.79-.76-21.35,2.06.43-.37,2.77-1.41-5.16.77-10.29,1.2-15.39,1.42-2.76-.63.41-.99,7.26-1.81,3.43-.4,7.79-1,12.8-2.05,5.01-1.07,10.7-2.6,16.59-5.39l1.11-.52c.37-.19.73-.4,1.1-.6.73-.41,1.47-.83,2.21-1.25.73-.44,1.45-.97,2.17-1.46l.7-.48c.09-.07.18-.12.28-.17l.49-.28c2.84-1.66,5.53-3.4,8.21-5.26,5.34-3.71,10.49-7.82,15.22-12.15,4.72-4.34,9.01-8.9,12.64-13.42,3.64-4.52,6.59-9,8.82-13.02,2.39-3.47,2.82-4.26,2.37-3.24-.22.51-.74,1.43-1.44,2.61-.35.59-.74,1.25-1.16,1.97-.45.69-.93,1.43-1.44,2.21-2.01,3.11-4.59,6.54-6.78,9.32-2.19,2.79-4,4.91-4.28,5.61.37.08,1.4-.55,3.27-2.15,1.82-1.66,4.52-4.26,7.85-8.48.86-1.03,1.71-2.21,2.62-3.47.93-1.24,1.84-2.65,2.81-4.15,1-1.47,1.89-3.17,2.92-4.91.5-.88.95-1.83,1.44-2.79.48-.96,1-1.94,1.44-3,.46-1.05.93-2.13,1.41-3.23.42-1.14.86-2.3,1.3-3.5.47-1.19.82-2.46,1.21-3.75.39-1.29.79-2.61,1.08-4.01,1.35-5.51,2.26-11.77,2.2-18.61v-.63c0-.21-.04-.5-.05-.75l-.12-1.54c-.06-1.01-.26-2.08-.45-3.12-.16-1.04-.47-2.1-.78-3.15-.27-1.05-.71-2.09-1.14-3.12-1.76-4.12-4.64-7.84-7.91-10.53-3.28-2.72-6.84-4.52-10.26-5.77-3.44-1.25-6.8-1.99-10.06-2.47-3.26-.49-6.42-.67-9.51-.7-3.09-.05-6.09.12-9.05.35-5.89.53-11.57,1.45-17.08,2.7-11.01,2.5-21.42,6.05-31.42,10.47-9.99,4.46-19.59,9.78-28.66,16.43-4.53,3.32-8.91,7.03-13.04,11.23-4.13,4.19-7.99,8.93-11.24,14.44-1.6,2.78-3.09,5.7-4.23,8.9-1.16,3.17-2.1,6.54-2.54,10.09-.46,3.52-.59,7.19-.12,10.82.07.91.24,1.81.4,2.71l.25,1.35c.04.22.08.47.13.66l.14.56c.37,1.48.74,2.97,1.11,4.46,1.64,5.96,3.78,12.03,6.85,18.02,3.08,5.96,7.1,11.9,12.47,17.05,2.69,2.57,5.68,4.91,8.92,6.97,3.27,2,6.76,3.71,10.4,5.04,7.3,2.61,15.04,3.69,22.6,3.6-2.74-.61,4.58-.35,14.15-1.98,2.35-.38,4.96-.91,7.12-1.3,2.4-.41,4.88-.83,7.34-1.25,5.1-.89,10.22-1.92,14.5-2.99-5.36,1.49-6.72,1.96-5.4,1.95,1.32-.02,5.32-.62,10.66-1.79,5.33-1.19,11.99-2.96,18.54-5.33,3.28-1.15,6.52-2.49,9.57-3.81,3.04-1.38,5.89-2.76,8.36-4.12,5.93-3.48,10.33-6.8,14.11-10.1,3.76-3.33,6.96-6.58,10.18-10.51,1.6-1.97,3.25-4.06,4.9-6.47.84-1.12,1.72-2.6,2.63-4.05.23-.37.46-.74.69-1.12.21-.41.42-.82.64-1.23.42-.84.86-1.69,1.31-2.58,1.61-3.68,3.18-8.1,3.6-13.55.44-5.42-.57-11.79-3.43-17.74,2.29,5.45,3.25,11.8,2.39,17.72-.81,5.94-3.22,11.19-6.16,15.5-1.14,1.86-2.78,4.31-4.75,6.76-.95,1.3-2.14,2.55-3.33,3.96-.61.69-1.28,1.36-1.94,2.07-.67.71-1.35,1.43-2.1,2.12-5.81,5.73-13.55,11.47-22.13,16.21-8.58,4.76-17.96,8.54-26.83,11.37-8.87,2.84-17.24,4.75-23.88,6.08-1.07.05-2.53.19-4.29.38-1.75.2-3.87.46-5.98.77-2.19.35-4.98.85-8,1.26-3.03.41-6.37.75-9.94.87-7.11.24-15.31-.4-23.44-3.21-8.12-2.74-15.9-7.82-21.62-14.14-5.79-6.28-9.71-13.41-12.43-19.92-.66-1.64-1.23-3.25-1.82-4.8-.54-1.56-.97-3.09-1.43-4.55-.48-1.46-.76-2.88-1.11-4.23-.33-1.37-.66-2.54-.89-4.06-1.02-5.71-.52-10.18-.05-12.58.55-2.41.92-2.9,1.05-1.06-.31,1.61-.42,3.26-.54,4.9-.01,1.65-.07,3.32.11,4.97.09,1.66.41,3.29.68,4.92l.98,4.27c1.94,7.79,4.69,15.08,8.55,21.56.49.81.98,1.61,1.46,2.4.51.78,1.07,1.54,1.6,2.3,1.03,1.54,2.27,2.94,3.43,4.35,2.47,2.72,5.06,5.27,7.97,7.36,2.86,2.13,5.89,3.95,9.02,5.33,3.12,1.43,6.31,2.51,9.5,3.24,6.38,1.53,12.69,1.78,18.74,1.4,3.03-.21,6-.6,8.92-1.1,2.91-.5,5.82-1.16,8.49-1.79,2.57-.59,5.41-1.14,8.24-1.76,2.84-.61,5.73-1.27,8.65-1.99,11.67-2.93,24.04-6.73,37.18-13.17,10.76-4.83,19.2-10.31,25.96-16.01,3.38-2.86,6.29-5.81,8.91-8.75,1.27-1.51,2.52-2.93,3.66-4.58,1.21-1.54,2.17-3.27,3.17-4.94,1.82-3.47,3.2-7.19,3.84-11.17.6-3.99.35-8.15-.68-12.13-1.04-3.98-2.83-7.77-5.2-11.18-2.38-3.41-5.27-6.51-8.6-9.36-8.22-6.6-15.87-9.86-22.4-12.25-6.59-2.27-12.21-3.45-17.29-4.17-5.08-.69-9.63-.95-14.2-.83-2.29.08-4.57.18-6.94.45-.58.06-1.21.11-1.77.19-.56.08-1.13.15-1.7.23-1.14.15-2.31.31-3.52.47-16.22,2.04-28.34,4.51-38.64,7.17-10.28,2.72-18.77,5.66-27.47,9.76-10.43,5.7,4.96-2.26-5.4,3.66-.85.48-1.7.96-2.56,1.44l-1.29.73-1.25.81c-1.68,1.09-3.36,2.19-5.05,3.28-1.65,1.16-3.24,2.41-4.85,3.61-.79.62-1.62,1.18-2.37,1.83-.75.66-1.5,1.31-2.24,1.96-6.05,5.06-10.87,10.78-14.57,15.53-.53,1.43,1.66-.71,5.61-5.11,4.18-4.19,10.42-10.5,18.78-16.33,2.12-1.39,4.31-2.83,6.56-4.3,2.33-1.32,4.71-2.67,7.12-4.04,2.49-1.2,4.99-2.49,7.55-3.65,1.29-.55,2.59-1.09,3.89-1.64,1.3-.54,2.59-1.12,3.92-1.57,10.52-3.98,21.25-6.64,30.47-8.31-2.38.49-4.28,1.05-6.01,1.52-1.73.49-3.29.86-4.94,1.4-1.65.51-3.41,1.04-5.56,1.66-2.13.68-4.65,1.49-7.83,2.5-5.39,2.06-7.58,2.78-8.62,3.16-1.05.34-.99.15-1.86.43-3.59,1.5-7.04,3.35-10.51,5.14-1.7.97-3.37,1.99-5.05,2.98-1.71.96-3.31,2.09-4.92,3.21-.06.39,1.05.14-.99,1.95-.5.47-1.24,1-2.17,1.82-.92.82-2.1,1.83-3.59,3.07-.73.64-1.6,1.26-2.45,2.09-.86.81-1.8,1.69-2.82,2.65-.51.48-1.05.98-1.61,1.5-.28.26-.56.52-.86.79-.27.29-.55.59-.83.89-1.13,1.2-2.35,2.5-3.67,3.9-1.15,1-2.13,2.16-3.18,3.27l-3.1,3.36c-1.02,1.15-1.98,2.44-2.97,3.67l-1.36,1.99c-.45.67-.92,1.33-1.3,2.06-1.92,3.61-3.32,7.57-3.78,11.66-.5,4.08.05,8.25,1.42,11.8,1.35,3.58,3.37,6.54,5.51,8.94,2.14,2.41,4.41,4.3,6.58,5.87,4.38,3.09,8.37,4.96,11.52,6.23,3.18,1.26,5.48,1.88,6.93,2.16,1.24.19,1.47.08.56-.36-1.03-.47-3.18-1.32-6.5-2.93-1.65-.81-3.6-1.81-5.8-3.13-2.19-1.33-4.65-2.94-7.21-5.12-2.54-2.19-5.22-4.94-7.4-8.64-1.03-1.88-1.96-3.96-2.53-6.28-.51-2.32-.82-4.83-.55-7.41-.09-.61-.07-1.21-.08-1.82,0-.61-.01-1.23.01-1.84l.18-1.83c.06-.61.12-1.24.26-1.83l.94-2.31c.36-.74.74-1.46,1.12-2.19l.57-1.09.64-1.03,1.28-2.05c.94-1.28,1.86-2.61,2.85-3.82l3.03-3.55c1.94-2.44,4.25-4.53,6.41-6.76,1.06-1.13,2.27-2.11,3.44-3.13l3.52-3.03c9.7-7.72,20.64-13.64,32.04-18.05,1.42-.47,2.03-.51,1.95-.37-.08.14-.83.52-2.03,1.14-1.2.61-2.87,1.4-4.81,2.31-1.92.96-4.06,2.15-6.32,3.33-2.23,1.23-4.45,2.68-6.62,3.99-2.12,1.4-4.07,2.87-5.81,4.1-.88.6-1.61,1.28-2.29,1.85-.67.58-1.27,1.1-1.75,1.55-.98.89-1.55,1.49-1.54,1.67-1.82,1.89-.11.92,3.79-1.76,1.89-1.42,4.59-2.93,7.59-4.85,1.52-.93,3.24-1.78,4.98-2.76,1.73-1.01,3.65-1.88,5.62-2.81,7.86-3.74,17.2-7.06,26.3-9.42,9.1-2.37,17.91-3.93,24.65-4.81,6.94-1.19,9.36-1.62,8.72-1.7-.32-.05-1.39.03-3.03.18-1.64.17-3.86.33-6.43.71-2.57.36-5.52.74-8.62,1.33-1.55.29-3.16.53-4.76.88-1.61.35-3.23.7-4.85,1.05-1.63.32-3.22.79-4.8,1.19-1.57.43-3.14.78-4.62,1.24-1.48.46-2.91.9-4.27,1.32-.68.21-1.34.42-1.98.61-.63.23-1.24.45-1.82.66,1.53-.7,3.1-1.28,4.68-1.87,1.58-.58,3.14-1.21,4.74-1.75,3.21-1.03,6.4-2.15,9.67-3.02,6.5-1.9,13.13-3.36,19.8-4.65,2.77-.38,5.87-.81,8.97-1.06,3.09-.3,6.17-.54,8.9-.51,5.45.02,9.37.72,9.07.95,6.17.93,5.56,1.59,6.23,2.12.32.31.96.54,2.84,1.07.94.26,2.2.52,3.86.97,1.68.41,3.77.97,6.37,1.76,7.46,2.41,12.74,5.15,16.53,7.43,3.77,2.31,6.15,4.13,7.67,5.42,1.58,1.23,2.29,1.96,2.77,2.22.45.27.54.16.58,0,.04-.17.02-.4.27-.36.12.02.31.11.59.31.27.22.63.56,1.13,1.06.24.26.53.55.85.89.31.35.61.78.97,1.25.76.92,1.5,2.16,2.37,3.72.35.81.81,1.68,1.18,2.67.3,1.01.76,2.08.94,3.31.57,2.42.7,5.35.13,8.62.14-.44.31-.95.45-1.54.09-.6.19-1.27.29-2.01.14-.74.09-1.55.1-2.43-.01-.44.03-.9-.04-1.37-.06-.47-.12-.95-.19-1.45-.24-2-.92-4.16-1.86-6.44-1.07-2.2-2.36-4.57-4.17-6.74-.22-.28-.44-.56-.66-.85-.24-.27-.48-.53-.72-.8-.49-.54-.99-1.08-1.49-1.63-1.09-1.01-2.15-2.12-3.38-3.08-2.37-2.03-5.06-3.85-7.92-5.57-2.86-1.73-5.96-3.2-9.16-4.6-3.22-1.33-6.57-2.52-10.02-3.51-6.89-1.94-14.11-3.19-21.26-3.46-1.79-.11-3.57-.07-5.34-.07-.88.01-1.76.08-2.64.12-.88.04-1.75.09-2.59.17-3.38.29-6.7.56-9.89.95-12.81,1.39-23.82,3.61-30.93,5.39-7.87,2.24-15.63,4.97-23.11,8.43-4.97,1.82,4.04-2.74,10.35-4.95,3.11-1.23,5.5-1.94,4.83-1.77-.33.1-1.43.36-3.53,1.12-2.09.75-5.26,1.75-9.58,3.63.89-.41,1.78-.81,2.68-1.22l1.35-.62,1.39-.55c1.86-.72,3.75-1.46,5.65-2.2,3.86-1.3,7.82-2.65,11.91-3.71,8.16-2.22,16.73-3.91,25.47-5.12,2.19-.27,4.38-.54,6.59-.81,2.21-.21,4.42-.43,6.64-.65,4.54-.42,9.29-.47,13.89-.12,9.25.65,18.32,2.77,26.83,6.06,8.48,3.3,16.49,7.86,22.94,14.14,3.2,3.14,5.98,6.74,7.91,10.79,1.93,4.03,2.87,8.53,2.66,12.83-.2,4.3-1.4,8.35-3.18,11.83-.42.89-.95,1.69-1.41,2.53-.24.41-.47.83-.73,1.22l-.81,1.14c-.54.75-1.06,1.52-1.62,2.23-.57.69-1.13,1.37-1.69,2.05-4.51,5.38-9.46,9.56-14.08,12.94-.35-.15-3.09,1.61-6.73,3.57-3.62,1.99-8.14,4.13-11.64,5.48-3.51,1.34-5.96,1.98-5.37,1.32.29-.35,1.36-.98,3.35-2.18,2.01-1.16,4.93-2.88,8.86-5.46-4.25,2.5-8.17,4.35-11.99,5.95-3.83,1.59-7.56,2.92-11.57,4.18-8.04,2.49-17.1,4.84-30.74,7.39-2.33.47-4.62.92-6.87,1.37-2.35.48-4.49.98-6.61,1.39-4.23.82-8.32,1.35-12.29,1.48-7.93.31-15.34-1.01-21.66-3.86-3.17-1.41-6.06-3.2-8.62-5.3-.67-.49-1.27-1.06-1.87-1.61-.6-.56-1.23-1.09-1.77-1.7-.56-.59-1.12-1.18-1.67-1.77-.51-.63-1.02-1.26-1.53-1.88-.52-.61-.98-1.27-1.43-1.93-.45-.66-.93-1.3-1.36-1.97-.41-.69-.82-1.37-1.22-2.05l-.61-1.02-.54-1.06c-.72-1.41-1.46-2.81-2.04-4.28l-.93-2.17-.81-2.22-.8-2.22-.67-2.27-.67-2.26c-.2-.76-.37-1.53-.56-2.3-.83-3.15-1.33-5.93-1.35-8.9-.07-5.89,1.65-11.84,4.8-17.39,3.13-5.56,7.48-10.8,12.73-15.71,5.27-4.89,11.39-9.51,18.36-13.83-3.82,2.19-3.01,1.45-1.03-.02,1.96-1.49,5.19-3.56,5.99-4.22,10.21-5.44,18.03-8.16,23.52-9.91,5.52-1.69,8.82-2.29,10.63-2.5,3.62-.37,1.39.9.21,1.82-1.18.98-1.35,1.43,6.19-.06.94-.17,2.01-.36,3.21-.57,1.2-.18,2.53-.43,4.02-.62,2.96-.43,6.52-.86,10.72-1.03,4.17-.14,9.07-.07,14.14,1.03,2.51.56,5.02,1.43,7.16,2.72,2.17,1.28,3.81,2.94,4.89,5.15.73,1.56,1.14,3.3,1.23,5.11.06.4.05.97.06,1.5,0,.53,0,1.05.01,1.57.02,1.02.04,2-.04,2.94-.05.94-.09,1.83-.13,2.67-.05.85-.17,1.64-.24,2.39-.07.75-.14,1.46-.21,2.11-.1.65-.2,1.25-.28,1.8-.29,2.21-.54,3.6-.51,4.07.04.48.34.04.94-1.45l.68-2.75.34-1.38.26-1.39c.17-.93.35-1.87.52-2.81.11-.95.22-1.91.34-2.87.06-.48.12-.97.17-1.46.02-.49.05-.98.07-1.48.05-.99.1-2,.14-3.02-.02-1.79-.19-3.57-.68-5.28-1.02-3.36-3.42-6.4-7.49-8.52-4.04-2.12-9.44-3.28-15.59-3.4.05-.06-.51-.18-1.52-.23-.51-.03-1.12-.06-1.81-.1-.7,0-1.48,0-2.32-.01-3.37.02-7.68.38-11.26.85-3.58.45-6.41.96-6.89.88-.24-.04.12-.21,1.28-.57,1.16-.36,3.13-.9,6.13-1.5,7.12-1.03,13.85-1.37,20.02-.75,6.13.61,11.81,2.2,15.92,5.28,8.76,6.12,6.92,18.07,5.77,27.51-1.65,9.74-5.29,18.82-10.52,27.44-5.28,8.61-12.2,16.79-21.08,24.59-3.63,3.67-7.48,7.15-11.51,10.43-1.87,1.34-4.1,2.9-6.67,4.55-.65.4-1.31.81-1.99,1.24-.71.38-1.4.95-2.07,1.41-1.32,1.02-2.86,1.84-4.41,2.75-3.19,1.67-6.78,3.08-10.6,4.25-3.83,1.16-7.9,1.99-12.04,2.67-16.65,2.6-34.49,1.76-47.03.28-9.15-.92-15.87-1.99-20.67-2.84-2.4-.43-4.31-.81-5.79-1.14-.72-.13-1.31-.37-1.84-.55-.52-.19-.95-.34-1.29-.46-1.35-.51-1.28-.61-.21-.44.53.09,1.31.25,2.28.46.49.13.92.16,1.53.24.59.07,1.22.15,1.89.24,5.37.67,13.11,1.48,19.69,1.89,6.57.43,11.96.5,12.64.3-9.98-.74-19.96-1.98-29.82-3.67l-3.68-.67-.87-.17c-.24-.04-.45-.09-.73-.18l-1.74-.52c-1.17-.37-2.36-.67-3.5-1.09l-3.44-1.23c-4.5-1.76-8.84-3.87-12.63-6.56-3.39-2.18-6.3-4.82-8.34-7.86-2.05-3.04-3.22-6.47-3.45-9.99-.22-3.52.49-7.09,1.71-10.43,1.23-3.35,3-6.5,5.04-9.41,4.09-5.83,9.33-10.64,14.84-14.63,2.77-1.99,5.67-3.71,8.62-5.22,2.95-1.5,5.97-2.78,9.03-3.7,3.05-.93,6.13-1.55,9.12-1.73,2.98-.18,5.87.11,8.38.97,2.51.86,4.61,2.27,6.24,4.23,1.64,1.95,2.8,4.48,3.56,7.29.77,2.81,1.19,5.87,1.25,9.07.15,3.17-.08,6.48-.37,9.82-.66,6.71-2.02,13.63-3.73,20.74.32-1.97.72-3.93.94-5.9,1.77-8.1,1.83-11.52,1.63-11.73-.12-.11-.35.57-.67,1.86-.36,1.29-.88,3.18-1.45,5.49-1.3,4.63-3.18,10.93-5.5,17.42-.57,1.62-1.21,3.25-1.8,4.88-.3.81-.6,1.62-.89,2.43-.32.8-.63,1.6-.95,2.39-.49,1.23-.96,2.43-1.42,3.6-.05.21-.21.37-.37.52l-.46.47c-.3.31-.59.62-.88.89-1.16,1.28-2.33,2.39-3.74,3.43-1.37.99-3.05,1.92-4.84,1.78-1.09.05-2.26-.47-3.07-1.48-.82-1-1.38-2.36-1.76-3.91-.1-.39-.19-.79-.25-1.2-.08-.41-.15-.84-.19-1.28-.06-.44-.11-.88-.13-1.34l-.05-.69c-.02-.23-.02-.57-.02-.86-.04-1.1,0-2.69.06-4.18.07-1.52.2-3.08.35-4.68,1.39-12.79,5.45-27.97,12.6-42.43,3.59-7.2,8-14.25,13.47-20.07,2.74-2.88,5.76-5.41,8.99-7.3,3.23-1.88,6.67-3.02,10.11-3.29.86,0,1.73-.11,2.59,0,.43.04.86.03,1.29.09l1.29.21.64.1.64.17,1.28.33c.82.27,1.64.52,2.4.89,3.12,1.32,5.77,3.51,7.98,6.15,1.08,1.35,2.07,2.8,2.95,4.33.85,1.56,1.64,3.15,2.29,4.82,1.34,3.31,2.27,6.78,2.99,10.22,1.07,5.95,1.11,10.28,1.04,11.71-.03.71-.11.71-.22-.13-.09-.84-.27-2.51-.56-5.15.92,10.3.21,20.92-1.54,31.3-1.78,10.37-4.61,20.63-8.74,30.01-1.01,3.75-2.64,7.83-5.09,11.69-.34.53-.5.79-.75,1.14-.23.34-.48.67-.74.99-.52.66-1.11,1.29-1.76,1.88-.65.59-1.39,1.12-2.2,1.54-.4.22-.84.38-1.28.53l-.68.16c-.22,0-.43-.19-.64-.27-2.17-1.07-4.29-2.7-5.86-4.66-.24-.29-.48-.59-.72-.89-.24-.37-.49-.74-.73-1.11-.53-.71-.91-1.54-1.36-2.34-.45-.79-.75-1.71-1.15-2.56-.31-.91-.64-1.83-.91-2.78-2.12-7.71-1.89-17.24.14-27.32,1.06-6.23,2.44-11.38,3.9-16.06,1.48-4.69,3.06-8.93,4.96-13.35,1.91-4.41,4.14-9,7.21-14.26,3.09-5.23,6.93-11.21,12.54-17.93,7.45-8.2,15.46-15.15,24-19.89,4.26-2.36,8.64-4.16,13.02-5.16,4.38-.97,8.73-1.05,12.8-.24,4.08.81,7.82,2.67,11.15,5.11,3.33,2.46,6.22,5.54,8.76,8.91.61.86,1.23,1.72,1.84,2.58.56.9,1.12,1.8,1.68,2.7.27.46.52.76.67,1.16l.64,1.41c.44.99.91,1.96,1.31,2.95,1.65,3.97,3.1,7.97,4.29,12.03,1.14,4.07,2.13,8.17,2.76,12.32.63,4.15,1,8.33,1.09,12.53.11,8.39-.96,16.85-3.41,25.09-2.45,8.21-6.26,16.25-11.62,23.38-1.32,1.76-2.85,3.56-4.2,4.97-1.24,1.27-2.46,2.39-3.81,3.44-1.35,1.02-2.78,1.94-4.31,2.64-1.53.69-3.18,1.19-4.88,1.06-1.16.32-2.98.32-4.33-.87-1.4-1.13-2.08-3.12-2.37-5.2-.28-2.1-.14-4.39.14-6.6.12-1.11.33-2.19.52-3.25.2-1.07.49-2.22.7-3.23,1.09-4.38,1.97-7.31,1.41-6.93-.26.19-.88,1.2-1.86,3.3-.95,2.14-2.31,5.23-3.59,9.88,1.12-5.05,2.93-10.02,4.92-14.86,1.99-4.83,4.28-9.51,6.67-14.09,4.76-9.17,10.13-17.91,15.87-26.24,5.78-8.29,12.09-16.15,19.29-22.9,3.6-3.36,7.45-6.42,11.56-8.9,4.12-2.43,8.58-4.27,13.06-4.7,2.23-.21,4.44-.03,6.48.6,2.04.63,3.89,1.71,5.47,3.15,3.18,2.88,5.19,7.07,6.24,11.51,1.03,4.47,1.18,9.21.71,13.9-.48,4.7-1.55,9.37-3.12,13.89-3.08,9.07-8.04,17.55-14.14,25.15-3.06,3.8-6.42,7.39-10.02,10.76-1.79,1.69-3.67,3.3-5.59,4.88-.96.76-1.96,1.58-2.9,2.29-.92.69-1.87,1.34-2.86,1.92-2.1,1.46-4.48,2.71-6.97,3.64-1.24.48-2.55.85-3.72,1.15-1.09.26-2.19.48-3.29.61-1.02.3-2.31.55-3.85.71-1.55.16-3.36.2-5.34-.09-1.95-.31-4.17-1.03-5.69-2.7-1.49-1.67-1.99-4.01-1.71-6.29.24-2.29.92-4.58,1.84-6.88.45-1.15.98-2.3,1.55-3.45.56-1.15,1.2-2.3,1.79-3.36,2.28-4.08,4.67-7.65,6.55-10.52,1.89-2.87,3.28-5.04,3.71-6.25.43-1.21-.1-1.48-1.97-.39-1.85,1.11-5.07,3.49-9.68,8.18-1.15,1.18-2.38,2.52-3.68,4.06-1.23,1.43-3.43,4.33-5.16,7.2-1.75,2.94-3.3,6.25-4.12,9.81-.4,1.78-.62,3.62-.57,5.5.05,1.88.38,3.82,1.13,5.73Z"/>
  <path class="cls-1" d="m80.53,65.27l4.4-2.56c1.46-.86,3-1.55,4.5-2.33,1.52-.73,3-1.56,4.54-2.21l4.61-2c1.53-.7,3.09-1.26,4.66-1.84l4.68-1.73,4.73-1.5c1.58-.51,3.15-1.01,4.74-1.41-1.81.28-3.6.69-5.4,1.08-1.84.49-3.44.89-4.85,1.35-1.41.48-2.63.92-3.75,1.34-1.12.42-2.13.83-3.1,1.23-.96.44-1.88.9-2.83,1.37-.95.47-1.93.97-3.01,1.51-.54.27-1.1.55-1.7.85-.59.33-1.21.67-1.87,1.03-1.33.71-2.82,1.51-4.54,2.43-1.71.94-3.6,2.12-5.8,3.39Z"/>
  <path class="cls-2" d="m196.96,34.07c2.14,1.58,3.87,3.44,5.26,5.66.3.59.66,1.14.97,1.74.26.63.54,1.25.84,1.87.22.67.43,1.35.67,2.01.14.34.19.66.29.98.09.32.17.64.23.97.58,2.56.62,5.05.39,7.45-.27,2.39-.84,4.68-1.56,6.7-1.42,4.05-3.12,6.94-3.36,7.83-.15.44.07.4.64-.25.58-.65,1.56-1.9,2.74-3.89,2.18-4.08,3.45-8.1,3.76-11.9.35-3.82-.23-7.43-1.58-11.04-1.31-3.47-3.21-6.31-5.68-8.67-.15-.15-.29-.31-.45-.45l-.51-.4-1-.83c-.7-.53-1.47-.99-2.19-1.51-.82-.42-1.58-.91-2.43-1.31l-1.29-.59c-.42-.2-.85-.4-1.32-.56-7.25-2.83-16.17-3.74-25.55-3.35-9.44.44-19.46,2.15-30,4.93.05.16.92.1,2.42-.14,1.49-.27,3.64-.66,6.26-1.14,5.22-.92,12.35-2.01,19.77-2.22,1.86-.1,3.71-.03,5.58-.04,1.84.1,3.7.15,5.47.36,3.57.36,6.98.93,9.9,1.8,5.93,1.67,9.85,4.18,11.73,5.98Z"/>
  <path class="cls-1" d="m117.87,137.13c-4.16.64-8.43.99-12.72,1.23-4.29.24-8.63.29-12.98.23-8.7-.12-17.46-.75-26.19-1.72,3.81.84,7.65,1.62,11.5,2.31,10.72.95,16.82.93,20.38.82,3.56-.15,4.6-.36,5.22-.59.61-.24.79-.48,2.61-.75,1.8-.3,5.27-.56,12.19-1.52Z"/>
  <path class="cls-2" d="m106.37,135.38c.07.36-2.78,1.25-2.76,1.46.01.11.75.08,2.94-.3,2.18-.39,5.81-1.14,11.5-2.74,11.33-3.47,22.29-7.89,32.86-13.07-1.31.69-5.35,2.46-10.58,4.45-5.23,1.99-11.68,4.14-17.68,5.83-11.99,3.45-22.19,4.82-16.28,4.37Z"/>
  <path class="cls-2" d="m133.42,76.6l-6.36-.88c-8.86,2.24-16.04,5.03-22.93,8.3l-1.5.69-.82.38c-.13.07-.29.11-.41.2l-.36.29c-.84.69-1.69,1.38-2.54,2.07-1.45,1.21-2.91,2.43-4.41,3.68-3,2.52-6.13,5.19-9.51,8.2,4.49-4.03,8.02-6.78,11.07-9.08,1.54-1.14,2.93-2.16,4.32-3.14.43-.31.86-.62,1.28-.93.21-.15.42-.31.64-.45l.73-.28c.87-.33,1.73-.67,2.61-1,1.6-.6,3.22-1.27,5.04-1.83.9-.3,1.84-.62,2.82-.95.49-.17,1-.34,1.51-.51.52-.15,1.06-.31,1.62-.47,2.22-.64,4.66-1.42,7.5-2.09,2.82-.77,6.03-1.43,9.69-2.22Z"/>
  <path class="cls-2" d="m217.55,72.27c-2.14,3.75-4.5,7.01-6.9,9.91-2.39,2.91-4.81,5.48-7.19,7.8-4.76,4.64-9.3,8.37-13.54,11.62-8.5,6.47-15.76,11.09-22.84,15.26-7.11,4.12-14.11,7.72-22.58,11.17-8.49,3.39-18.46,6.76-31.74,9.15-4.73,1.12-9.14,1.98-13.25,2.56-2.05.29-4.03.52-5.93.68-.95.07-1.89.14-2.8.18-.43.03-.96.04-1.48.06-.51.01-1.01.02-1.55.02-4.2.02-7.96-.48-11.07-1.43-3.1-.97-5.59-2.43-7.3-4.27-1.74-1.83-2.5-4-2.77-5.78-.29-1.81-.15-3.32,0-4.54.33-2.43.73-3.75.7-4.21-.02-.45-.45-.05-1.07,1.06-.61,1.11-1.37,2.92-1.76,5.24-.4,2.3-.26,5.22,1.02,7.94,1.27,2.73,3.52,4.94,6.03,6.58,2.26,1.21,4.5,1.92,6.53,2.38,2.03.48,3.89.65,5.48.79.8.03,1.55.07,2.23.1.69,0,1.32-.01,1.9-.02,1.14-.02,1.98-.11,2.72-.18,2.33-.33,2.89-.73,4.05-1.18,1.15-.46,2.89-.95,7.3-1.93,4.4-1.02,11.47-2.51,22.92-6.09,14.44-4.08,29.72-10.3,41.8-16.39,12.12-6.01,21.02-11.87,23.83-13.15,8.06-5.84,13.62-11.06,17.47-15.21,3.85-4.17,6.04-7.24,7.3-9.16,1.25-1.94,1.59-2.75,1.46-2.8-.14-.06-.74.63-1.57,1.5-1.62,1.79-4.09,4.31-4.47,4.24-.18-.03.17-.68,1.35-2.42,1.15-1.77,3.2-4.61,5.72-9.49Z"/>
  <path class="cls-2" d="m132.47,71.61l-4.54.96-2.27.49-2.26.58c-1.5.4-3.01.76-4.51,1.19l-4.48,1.39c-1.5.43-2.96,1.01-4.44,1.54-1.47.56-2.96,1.03-4.4,1.68l-4.73,2.04-.79.34c-.26.12-.55.21-.76.41l-1.37,1.07-2.03,1.59.94-.62.48-.32.71-.5,1.41-.99c.22-.19.51-.26.77-.37l.8-.29,1.49-.55,1.12-.38,2.23-.76c1.47-.54,3-.88,4.5-1.33,1.5-.41,2.99-.88,4.51-1.19l4.33-1.72c1.45-.55,2.92-1.02,4.39-1.54l2.21-.76,2.22-.67,4.46-1.31Z"/>
  <path class="cls-2" d="m223.16,75.23c2.57-5.18,4.54-10.93,5.35-17.01.82-6.07.4-12.42-1.23-18.27,1.31,5.3,1.65,10.96.99,16.4-.67,5.45-2.3,10.63-4.47,15.35-4.42,9.45-10.8,17.13-17.65,23.75,6.33-5.67,12.33-12.17,17.02-20.22Z"/>
  <path class="cls-2" d="m167.87,128.32c7.45-3.8,14.75-8.01,21.82-12.77,7.78-5.53,13.78-11.06,15.98-13.48,1.1-1.22,1.29-1.6.28-.89-1.02.7-3.22,2.53-7.07,5.41-6.26,4.99-10.83,8.07-14.15,10.37-3.33,2.27-5.44,3.69-7.04,4.84-3.22,2.25-4.38,3.41-9.83,6.52Z"/>
  <path class="cls-1" d="m230,149.25c-16.47,7.7-35.24,13.35-55.45,17.24-20.22,3.86-41.94,6.02-64.5,5.95-11.27-.07-22.76-.71-34.19-2.33-5.71-.81-11.39-1.91-16.89-3.41-2.74-.76-5.44-1.61-7.98-2.64-2.54-1.01-4.98-2.18-7.01-3.52-.47-.35-.97-.68-1.42-1.02-.39-.36-.87-.7-1.19-1.05-.32-.37-.67-.65-.87-1l-.37-.49c-.09-.19-.18-.37-.28-.54l-.15-.26-.16-.39-.41-.97-.85-1.97c-.61-1.3-1.01-2.66-1.51-3.99-1.87-5.37-3.11-10.93-3.56-16.56-.96-11.27,1.35-22.75,6.31-33.38,1.66-4.16,3.67-8.29,6.12-12.3,2.44-4.02,5.15-8.02,8.3-11.86,3.13-3.85,6.55-7.65,10.32-11.32,3.78-3.66,7.87-7.22,12.27-10.68,17.03-11.94,36.22-20.96,56.09-26.48,7.36-2.25,15.02-4.05,22.8-5.11,3.88-.56,7.79-.89,11.68-1.02,3.9-.17,7.75,0,11.53.38,7.55.75,14.74,2.83,20.46,6.42,5.75,3.57,9.64,8.85,11.69,15.11,2.16,6.27,2.03,12.69.15,18.82-1.86,6.13-5.3,11.84-9.24,16.85-3.94,5.04-8.38,9.44-12.73,13.32-4.37,3.88-8.68,7.24-12.67,10.17-4.91,2.95-7.53,4.19-10.11,5.46-2.6,1.24-5.2,2.48-10.42,4.86-9.99,5.35-26,12.03-42.56,16.17-4.13,1.04-8.28,1.93-12.33,2.59-2.03.33-4.03.61-5.99.81-.98.1-1.95.19-2.9.26-.92.07-2,.12-2.63.14-1.38.05-2.57.04-3.82-.05-1.23-.09-2.44-.26-3.59-.57-1.14-.31-2.23-.75-3.11-1.42-.89-.65-1.52-1.56-1.81-2.49-.2-1.25.08-2.45.45-3.48.38-1.04.88-1.95,1.39-2.77,1.04-1.62,2.1-2.88,3.08-3.91,1.15-1.23,2.53-2.65,3.73-3.75,1.22-1.13,2.36-2.11,3.45-3.02,4.42-3.6,8-6.09,15.04-11.11.76-.62,1.51-1.25,2.28-1.87l.91-.74c.2-.14.36-.35.59-.44,1.55-.69,3.12-1.39,4.7-2.09,1.82-.69,3.66-1.38,5.51-2.07,1.89-.6,3.8-1.19,5.72-1.8,7.75-2.22,16-3.7,24.51-4.61,8.52-.91,17.3-1.24,26.23-1.24,2.23,0,4.47,0,6.72.05,2.25.03,4.5.08,6.77.15,2.27.07,4.53.14,6.8.22l6.66.25.79.04c.26.02.55.19.82.27l2.49.98c1.97.81,3.92,1.63,5.74,2.54,1.68.84,2.29,1.2,3.19,1.8.84.57,1.64,1.21,2.29,1.98.64.76,1.13,1.72,1.06,2.74-.05,1.02-.63,1.92-1.31,2.63-.68.73-1.49,1.32-2.32,1.84-.41.26-.84.51-1.27.74l-.7.36-1.24.61c-7.18,3.36-15.26,5.83-23.17,7.9-7.95,2.06-15.87,3.7-23.57,5.09-7.31.31-16.6,1.16-26.98,1.74-10.35.56-21.91.93-33.1-.19-2.79-.28-5.53-.69-8.14-1.23-.65-.13-1.29-.29-1.93-.44-.63-.16-1.27-.32-1.78-.48l-.68-.2-.5-.16c-.33-.11-.66-.23-.98-.37-1.28-.53-2.55-1.26-3.37-2.4-.4-.56-.68-1.23-.73-1.91-.06-.69.06-1.37.28-2.01.45-1.28,1.26-2.38,2.11-3.36l.33-.36.16-.18.27-.27c.4-.39.73-.76,1.18-1.17.84-.8,1.72-1.57,2.62-2.32,1.79-1.5,3.7-2.87,5.58-4.14.22-.12.44-.25.66-.37.23-.11.5-.13.74-.2l.19-.04.37-.11.81-.24c.54-.15,1.07-.31,1.59-.46,16.26-5.73,33.19-10.84,49.48-14.13,8.13-1.62,16.13-2.76,23.55-2.98,3.69-.08,7.25.03,10.44.52,3.2.45,6.01,1.3,8.09,2.4,2.06,1.14,3.37,2.35,4.22,3.95.44.8.81,1.69,1.03,2.74.27,1.01.37,2.17.45,3.34.03,1.2,0,2.43-.13,3.69-.05.47-.1.93-.15,1.39-.05.34-.08.68-.15,1.01-.58,1.26-1.17,2.05-2.81,3.58-3.02,2.68-6.71,4.72-9.79,6.24-3.13,1.51-5.78,2.58-7.64,3.36-.05-.13,1.18-.67,2.6-1.36,1.42-.69,3.02-1.54,3.8-2.13.78-.59.79-.87-.92-.47-1.72.36-5.19,1.47-11.75,2.7-2.53.64-6.45,1.37-9.73,1.75-1.64.2-3.12.33-4.18.42-1.06.1-1.71.13-1.71.18-1.26,0-5.32.08-10.14-.85-.3-.06-.6-.12-.9-.18-.29-.07-.58-.14-.87-.22-.36-.08-.45-.12-.61-.17-.16-.05-.32-.1-.47-.16-.63-.23-1.28-.51-1.88-.91-.6-.4-1.17-.91-1.55-1.56-.36-.67-.56-1.45-.47-2.23.07-.78.32-1.54.66-2.25.17-.37.35-.68.57-1.05l.41-.65c.05-.08.18-.27.3-.43l.35-.49c.44-.66,1-1.32,1.5-1.98l.82-.98c.28-.31.31-.4.47-.53l.23-.21c.13-.12.25-.24.39-.35l.8-.66c.55-.42,1.1-.83,1.67-1.2,4.57-3.02,9.83-4.24,13.33-4.8,2.9-.47,4.88-.52,5.91-.63,1.04-.09,1.17-.21.47-.4-3.66-.34-6.6-.23-8.84-.03-2.24.19-3.8.44-4.8.52-1.97.23-1.81-.36.31-1.51,2.1-1.12,6.35-2.66,12.42-3.04,3.02-.2,6.47-.07,10.15.56,1.84.32,3.74.77,5.65,1.4,1.89.61,3.86,1.47,5.6,2.45,1.71.97,3.41,2.21,4.82,3.85,1.4,1.63,2.47,3.71,2.64,6,.18,2.29-.57,4.62-1.8,6.67-1.25,2.06-2.94,3.9-4.87,5.62l-1.49,1.24-1.55,1.18-1.62,1.14-1.89.59c-1.26.39-2.52.78-3.78,1.17-1.27.37-2.56.65-3.84.98-5.13,1.32-10.38,2.15-15.57,2.9-10.4,1.33-20.59,1.73-29.8,1.99-9.21.24-17.45.36-24.09.65-8.02.06-16.21.26-24.06,1.03,14.41-.72,29.76.27,46.52.93,8.39.31,17.15.52,26.36.11,9.19-.43,18.86-1.48,28.75-4-1.54.27-1.95.27-1.54.08.2-.09.61-.23,1.17-.41.3-.09.64-.19,1.02-.31.46-.13.97-.28,1.51-.43.28-.08.57-.16.86-.24.15-.04.3-.08.45-.13.13-.09.27-.18.41-.27.55-.36,1.13-.73,1.73-1.13.31-.19.6-.4.89-.61.25-.18.51-.36.77-.55.51-.35,1.02-.77,1.55-1.17.53-.39,1.05-.86,1.58-1.3l.4-.34.45-.42.89-.85c.59-.58,1.15-1.19,1.69-1.8.5-.65,1.05-1.25,1.49-1.91.95-1.29,1.65-2.66,2.23-3.96.54-1.32.9-2.6,1.08-3.77.38-2.33.1-4.11-.08-4.84-.19-.75-.17-.51-.09,1.08.02.8,0,1.95-.29,3.46-.31,1.5-.9,3.35-2.1,5.39-.91,1.65-2.09,3.15-3.35,4.56-.64.7-1.31,1.37-2.01,2.01-.36.34-.68.61-.99.87l-.95.79c-1.32,1.02-2.44,1.87-4.17,2.96l-1.21.77c-.1.06-.2.13-.31.19l-.35.09-.69.18-2.58.66c-6.99,1.59-14.06,2.51-21.08,2.9-7.03.42-14.03.46-20.97.23,4.44-.1,9.62-.17,15.36-.57,5.73-.33,12.02-1.02,18.58-2.21,1.64-.33,3.3-.61,4.97-.99,1.74-.44,3.51-.88,5.28-1.33,1.05-.12,1.85-.86,2.75-1.36.44-.26.89-.58,1.26-.83.38-.26.76-.5,1.13-.79.75-.55,1.49-1.1,2.21-1.72.35-.28.74-.63,1.13-.99.39-.36.78-.7,1.14-1.09,2.97-2.95,5.32-6.73,5.71-10.94.18-2.08-.15-4.21-.94-6.14-.79-1.93-1.97-3.71-3.4-5.24-1.43-1.54-3.08-2.87-4.83-4-1.7-1.1-3.3-1.92-5.01-2.68-3.38-1.49-6.84-2.48-10.26-3.12-6.86-1.27-13.6-1.12-19.6.13-6.01,1.24-11.25,3.7-15.17,6.64-.48.38-.95.75-1.41,1.12-.44.39-.87.77-1.29,1.14-.42.41-.83.82-1.22,1.21-.38.43-.72.9-1.01,1.27-1.2,1.54-2.17,3.02-2.94,4.33-1.58,2.24-3.02,4.77-3.9,7.27-.92,2.51-1.19,5.12-.79,7.53.45,2.41,1.65,4.53,3.23,6.13,1.56,1.62,3.42,2.82,5.31,3.75.96.45,1.91.86,2.88,1.2.48.19.97.33,1.45.49l.72.22.66.18c1.75.49,3.42.82,5.05,1.09,3.25.53,6.29.78,9.18.89,5.78.2,10.98-.1,16.25-.76,5.26-.7,10.61-1.74,16.6-3.74,4.02-1.56,8.04-3.43,11.91-6.01,1.94-1.31,3.81-2.77,5.62-4.61.97-1.02,1.88-2.09,2.67-3.25.38-.59.78-1.17,1.11-1.79l.52-.92.23-1.03.46-2.07c.08-.34.14-.7.19-1.04l.15-.97c.2-1.15.29-2.35.4-3.54.14-2.42.11-4.91-.27-7.47-.41-2.56-1.19-5.18-2.48-7.64-1.27-2.46-3.04-4.71-5.1-6.52-4.15-3.66-9.08-5.57-13.76-6.71-4.72-1.11-9.38-1.49-13.94-1.56-9.11-.07-17.9,1.06-26.42,2.61-17.04,3.18-33.08,8.05-47.93,13.36-1.86.67-3.69,1.35-5.51,2.03-.91.35-1.81.69-2.71,1.04l-1.73.67c-.6.26-1.26.41-1.75.87l-1.59,1.2c-.47.35-.8.61-1.2.93-.77.62-1.54,1.21-2.28,1.85-1.5,1.25-2.97,2.54-4.39,3.9-.71.67-1.4,1.38-2.09,2.09-.71.77-1.34,1.42-2.17,2.44-1.58,1.86-2.98,3.82-4.05,5.88-1.09,2.05-1.85,4.19-2.19,6.36-.36,2.17-.17,4.38.49,6.41.41,1.25.99,2.41,1.69,3.47.74,1.04,1.55,2,2.47,2.85,1.81,1.72,3.95,3.02,6.13,4.09,1.09.54,2.21,1,3.33,1.42.55.19,1.16.43,1.64.58.48.15.96.3,1.44.45,1.82.53,3.58.96,5.28,1.33,6.83,1.41,12.84,1.95,18.22,2.32,10.76.65,19.02.51,25.8.4,6.78-.15,12.06-.35,16.8-.56,4.74-.21,8.92-.44,13.48-.83,7.38-1.34,16.22-3.09,25.49-5.54,4.63-1.23,9.37-2.65,14.09-4.33,2.36-.85,4.71-1.77,7.04-2.8,1.17-.51,2.33-1.06,3.48-1.63,1.4-.68,2.98-1.58,4.44-2.45,5.84-3.59,10.51-8.22,11.96-13.78.78-2.77.5-5.71-.4-8.18-.93-2.48-2.4-4.59-4.07-6.4-1.69-1.8-3.59-3.3-5.46-4.58-.97-.6-1.88-1.22-2.81-1.72-.91-.48-1.87-1.04-2.61-1.38-.39-.18-.76-.36-1.13-.54-.37-.18-.74-.34-1.01-.45-.59-.24-1.14-.47-1.66-.68-1.04-.39-1.93-.71-2.67-.94-1.61-.71-3.2-1.37-4.75-1.99-1.05-.4-2.1-.79-3.13-1.19-.49-.27-1.09-.19-1.65-.24-.56-.03-1.12-.05-1.68-.08-3.12-.17-6.1-.33-8.97-.48-5.64-.31-10.84-.54-15.67-.73-9.67-.35-17.86-.45-25.18-.27-14.64.44-25.79,1.48-38.36,4.58-.67.2-1.34.39-1.99.58-.65.2-1.28.43-1.91.65-1.25.44-2.47.86-3.64,1.27-1.18.39-2.29.87-3.38,1.32-1.23.51-2.43,1.01-3.58,1.49-.4.17-.8.34-1.2.51l-.61.26-.52.4c-.69.54-1.38,1.06-2.05,1.58-.78.61-1.54,1.19-2.28,1.76-1.44,1.13-2.78,2.21-4.04,3.25-5.03,4.16-8.74,7.62-12.05,11.05-1.65,1.72-3.2,3.44-4.75,5.27-.79.96-1.49,1.8-2.43,3.02-.22.29-.44.58-.67.87-.28.39-.57.78-.85,1.17-.59.82-1.21,1.63-1.75,2.5-2.25,3.43-4.35,7.31-5.39,11.68-.51,2.18-.78,4.47-.61,6.88.17,2.39.82,4.98,2.23,7.39,1.91,3.47,4.75,5.79,7.71,7.41,2.97,1.65,6.23,2.55,9.34,3.12,3.1.55,6.22.71,8.86.75.62,0,1.24,0,1.83,0,.44,0,.87-.02,1.3-.03.85-.02,1.63-.06,2.39-.09,5.99-.34,9.44-.83,11.47-.97,4.03-.36,2.24.41.82,1.11-.72.34-1.34.66-1.07.82.27.15,1.43.16,4.24-.23,2.8-.4,7.25-1.19,13.91-2.95,6.66-1.77,15.52-4.49,27.01-9.24,8.65-3.49,17.75-7.89,26.37-12.92,8.62-5.02,16.72-10.71,23.46-16.44,6.75-5.71,12.08-11.52,15.5-16.04,3.44-4.52,5.03-7.62,4.8-7.71,3.51-4.95,6.71-10.73,8.77-17.45,2.07-6.67,2.85-14.32,1.67-21.72-.14-.92-.3-1.84-.5-2.75-.18-.92-.41-1.81-.67-2.68l-.76-2.64c-.24-.88-.64-1.75-.96-2.62-.35-.87-.67-1.74-1.06-2.6l-1.29-2.54c-.81-1.71-1.95-3.28-2.97-4.88-4.39-6.31-10.44-11.24-16.65-14.62-6.24-3.43-12.65-5.3-18.74-6.51C181.39.5,175.55.06,170.08,0c-5.47-.03-10.59.3-15.35.75-2.36.29-4.66.5-6.83.85-1.09.16-2.16.31-3.2.46-1.04.17-2.05.34-3.04.51-8.41,2.18-16.85,4.97-25.3,8.3-8.46,3.31-16.92,7.2-25.29,11.7-8.38,4.48-16.66,9.61-24.69,15.45-2.03,1.43-3.98,3-5.97,4.52-1.94,1.6-3.93,3.14-5.82,4.84-3.87,3.28-7.56,6.87-11.16,10.6-3.59,3.75-6.98,7.78-10.21,12-3.17,4.28-6.13,8.79-8.79,13.56-2.6,4.81-4.88,9.86-6.73,15.14-1.8,5.3-3.11,10.84-3.89,16.47-.79,5.64-.84,11.4-.41,17.07l.44,4.24.72,4.19c.21,1.4.59,2.76.92,4.13.36,1.36.63,2.74,1.1,4.06l1.3,3.97c.45,1.32,1.01,2.57,1.51,3.86.52,1.28,1.02,2.56,1.64,3.77l1.81,3.72c.14.33.44.83.72,1.29l.85,1.38c.28.46.59.9.94,1.31l1.02,1.25c.67.85,1.45,1.53,2.15,2.21.72.71,1.43,1.24,2.14,1.79,2.85,2.17,5.65,3.68,8.35,4.86,1.49.77,2.93,1.32,4.39,1.95,1.43.52,2.88,1.11,4.28,1.53,1.41.47,2.82.91,4.21,1.28,1.4.41,2.77.74,4.15,1.07,5.49,1.3,10.85,2.19,16.12,2.85,10.54,1.29,20.73,1.74,30.71,1.67,19.94-.16,39.01-2.16,57.68-5.67,18.66-3.53,36.94-8.57,54.93-15.97,4.49-1.87,8.95-3.9,13.38-6.11,4.41-2.25,8.81-4.63,13.13-7.31,4.31-2.69,8.56-5.59,12.69-8.8,4.11-3.25,8.09-6.79,11.85-10.72.74-1.06,1.39-2.02,1.94-2.89.52-.9.95-1.7,1.3-2.4.34-.7.6-1.3.76-1.8.15-.51.22-.93.21-1.23-.07-1.25-1.33-.74-4.02,1.13-2.65,1.91-6.74,5.19-12.7,9.2-5.98,3.97-13.85,8.66-23.99,13.22Z"/>
</svg>